<svg viewBox="0 0 128 128" fill="none" xmlns="http://www.w3.org/2000/svg">
  <path d="M64 0c-35.3 0-64 28.7-64 64s28.7 64 64 64 64-28.7 64-64-28.7-64-64-64z" fill="#336791"/>
  <path d="M90.5 51.2c-1.7-2.3-4.2-3.7-7.4-4.2-.4-2.9-1.5-5.4-3.3-7.5-2.3-2.7-5.5-4.3-9.5-4.8-2.2-3.6-5.7-5.9-10.3-6.9-6.7-1.4-12.7.3-17.3 4.9-3.5 3.5-5.6 8.1-6.2 13.6-.3 0-.6 0-.9.1-4.9.7-8.7 3.1-11.1 7.1-2.7 4.5-3.1 10.1-1.1 16.3 1.5 4.7 4.3 8.9 8.1 12.2 3.4 3 7.4 5.1 11.6 6 1.3.3 2.6.4 3.9.4h.1c4.1 5.9 10.2 9.4 17.2 9.4 5.6 0 10.6-2 14.4-5.8 3.3-3.3 5.3-7.5 5.8-12.3 3.5-.9 6.4-2.6 8.5-5.1 2.4-2.8 3.6-6.3 3.6-10.3 0-5.1-2.2-9.7-6.1-13.1z" fill="#fff"/>
  <path d="M46 84.3c-3.8-.8-7.3-2.6-10.3-5.4-3.4-3-5.9-6.7-7.2-10.9-1.7-5.3-1.4-9.9.8-13.5 1.9-3.1 5-5 9-5.6l1.6-.2.1-1.6c.5-4.9 2.3-8.9 5.3-12 3.8-3.8 8.6-5.1 14.3-3.9 3.7.8 6.5 2.7 8.3 5.7l.6 1 1.1-.3c3.3-.8 6.3.3 8.2 2.4 1.4 1.6 2.2 3.6 2.5 5.9l.2 1.4 1.4.2c2.4.4 4.2 1.4 5.4 3.1 3.1 4.2 2.4 10.7-1.5 14.8-1.7 1.8-3.9 3.1-6.6 3.8l-1.2.3v1.2c0 4.1-1.6 7.6-4.5 10.5-3.2 3.2-7.4 4.9-12.2 4.9-5.8 0-11-2.9-14.5-8l-.5-.8-.9.1c-1 .1-2 .1-3 .1-.5 0-1 0-1.5-.1z" fill="#336791"/>
</svg>
